<?xml version="1.0" encoding="utf-8"?>
<svg version="1.1" id="Layer_1" xmlns="http://www.w3.org/2000/svg" xmlns:xlink="http://www.w3.org/1999/xlink" x="0px" y="0px"
	 width="400px" height="400px" viewBox="255 205 295 295" style="enable-background:new 255 205 295 295;" xml:space="preserve">
<style type="text/css">
	.st0{fill:none;stroke:#2c3e50;stroke-width:6;stroke-miterlimit:10;}
	.st1{fill:none;stroke:#2c3e50;stroke-miterlimit:10;}
	.st2{font-family:'MarkerFelt-Thin';}
	.st3{font-size:30px;}
</style>

<line class="st0" x1="272.93" y1="392.61" x2="540.93" y2="392.61"/>
<line class="st0" x1="275.04" y1="394.11" x2="275.04" y2="301.5"/>
<line class="st0" x1="346.33" y1="301.5" x2="347.18" y2="334.19"/>
<path class="st0" d="M274.51,302.83c11.48-13.02,24.02-25.1,37.46-36.09c-0.2,0.17-0.4,0.34-0.6,0.51"/>
<path class="st0" d="M346.33,302.61c-9.9-14.08-22.58-26.2-36.96-35.66"/>
<path class="st0" d="M410.78,243.77C411,294,411,343,410.78,392.61"/>
<path class="st0" d="M335.84,287.68c7.97-13.69,19.64-25.19,33.3-33.96c17.05,9.26,31.25,23.68,39.28,41.03
	c-21.3,11.71-41.78,24.9-61.25,39.44"/>
<path class="st0" d="M352.66,330.12c-2.86,2.25-5.73,4.49-8.55,6.09c-2.21,18.54-2.46,37.31-0.75,55.9"/>
<line class="st0" x1="450.53" y1="268.47" x2="450.53" y2="392.1"/>
<path class="st0" d="M423.1,250.08c8.08,8.52,17.9,15.4,28.71,19.98"/>
<path class="st0" d="M410.83,243.16c-0.02,1.86-0.04,3.71-0.05,5.57"/>
<path class="st0" d="M502,392.1c2.62-50.31,1.62-101.54,3.36-151.79"/>
<path class="st0" d="M438.66,263.05c0-7.98,0-15.97,0-23.95"/>
<g>
	<polygon fill="#2c3e50" points="274.51,300.83 331.95,302.83 274.51,304.83 	"/>
</g>
<g>
	<polygon fill="#2c3e50" points="312.79,268.47 310.79,347.8 308.79,268.47 	"/>
</g>
<g>
	<polygon fill="#2c3e50" points="337.73,285.78 388.69,287.78 337.73,289.78 	"/>
</g>
<g>
	<polygon fill="#2c3e50" points="371.8,256.1 369.8,302.83 367.8,256.1 	"/>
</g>
<g>
	<polygon fill="#2c3e50" points="343.94,336.03 420.72,339.43 343.86,340.03 	"/>
</g>
<path class="st0" d="M467.78,214.86c-9.17,9.22-19.04,17.74-29.5,25.46"/>
<path class="st0" d="M424.29,251.14c-4.56-3.64-8.58-7.94-11.01-11.71c-1.29-2.21-2.59-4.43-3.88-6.64"/>
<path class="st0" d="M409.81,234.57c1.11,3.87,1.42,7.96,0.93,11.95"/>
<path class="st1" d="M409.04,237.32c-0.25-1-0.5-1.99-0.82-3.21C408.39,234.86,408.57,235.61,409.04,237.32z"/>
<path class="st1" d="M438.74,238.07c-0.4,0.4-0.8,0.8-1.87,1.27C437.37,238.96,437.87,238.59,438.74,238.07z"/>
<path class="st0" d="M465.79,214.92c13.4,8.7,26.81,17.41,39.95,26.5c0.17,0.05,0.34,0.1,0.51,0.15"/>
<g>
	<path fill="#2c3e50" d="M512.88,244.05c-1.33,0.01-2.64-0.18-3.96-0.39c-1.32-0.25-2.61-0.62-3.88-1.1c-1.26-0.48-2.71-0.75-3.66-1.78
		c-0.96-0.99-1.76-2.2-1.97-3.88l0.27-0.3c1.68,0.03,2.87,0.43,4,0.91c1.14,0.43,1.86,1.5,2.86,2.23c0.99,0.71,2.02,1.4,3.09,2.06
		c1.06,0.69,2.19,1.27,3.35,1.87L512.88,244.05z"/>
</g>
<text transform="matrix(1 0 0 1 270.7886 422.145)" fill="#2c3e50" class="st2 st3">444 Construction Ltd.</text>
</svg>
